<?xml version="1.0" encoding="utf-8"?>
<!-- Generator: Adobe Illustrator 28.3.0, SVG Export Plug-In . SVG Version: 6.00 Build 0)  -->
<svg version="1.1" id="Layer_1" xmlns="http://www.w3.org/2000/svg" xmlns:xlink="http://www.w3.org/1999/xlink" x="0px" y="0px"
	 viewBox="0 0 180 50" style="enable-background:new 0 0 180 50;" xml:space="preserve">
<style type="text/css">
	.st0{fill:url(#SVGID_1_);}
</style>
<linearGradient id="SVGID_1_" gradientUnits="userSpaceOnUse" x1="81.7295" y1="34.8447" x2="81.7295" y2="49.5195">
	<stop  offset="5.034351e-04" style="stop-color:#BBCEFF"/>
	<stop  offset="1" style="stop-color:#FFB3E8"/>
</linearGradient>
<polygon class="st0" points="160.8,50 1.1,50 1.1,34.8 160.8,34.8 162.3,42.3 "/>
<g>
	<path d="M9.5,40H1.1V14.2h8.4V40z"/>
	<path d="M39.6,40h-8.4V26.6c0-3.4-0.5-6-4-6c-3.6,0-4.6,2.9-4.6,6.7V40h-8.4V14.2h8.4l-0.1,3.7h0.1c1.4-2.3,3.8-4.2,7.5-4.2
		c7.5,0,9.5,4.8,9.5,11.1V40z"/>
	<path d="M60.7,38.4c-1.9,1.5-4.5,2.3-7.9,2.3c-3.9,0-8-1.2-10.9-4l3.2-5c2.1,1.8,5.6,3.2,7.7,3.2s3.6-0.5,3.6-2.2
		c0-1.7-3.8-2.5-4.7-2.8c-1-0.3-2.5-0.7-3.7-1.2c-1.2-0.5-4.4-2.2-4.4-6.8c0-5,4.4-8.1,9.8-8.1c5.4,0,8.5,2,9.9,3.2l-2.7,4.9
		c-1.5-1.2-4.4-2.5-6.5-2.5c-2,0-3.1,0.5-3.1,1.9c0,1.4,2,2,3.8,2.5c1.8,0.5,2.6,0.8,3.7,1.2c1.2,0.4,2.5,1.1,3.4,1.9
		c0.8,0.8,2.1,2.5,2.1,5.3C63.8,34.7,62.6,36.8,60.7,38.4z"/>
	<path d="M92.4,40h-8.1l-0.1-2.9c-1.1,1.6-3.8,3.5-7.6,3.5c-3.7,0-6.1-1.3-7.4-3c-1.3-1.8-1.9-4-1.9-7.8V14.2h8.4v14.5
		c0,3,0.8,5,3.8,5c3,0,4.4-2.4,4.4-5.8V14.2h8.4V40z"/>
	<path d="M115.1,21.9c0,0-1.3-1.3-4.2-1.3c-5.1,0-5.2,5-5.2,7.9V40h-8.4V14.2h8.4v3.7c1.5-2.8,3.7-4.1,6.5-4.1
		c1.7,0,2.9,0.6,2.9,0.6V21.9z"/>
	<path d="M127.1,40h-8.4V14.2h8.4V40z"/>
	<path d="M146.2,33.7c-1.1,0-1.6-0.2-2-0.6c-0.4-0.5-0.7-1-0.7-3.2v-9.3h6.2l-2.6-6.4h-3.6v-7H135v7h-3.7v6.4h3.7v10
		c0,3.9,0.5,6.1,1.8,7.6c1.3,1.5,3.3,2.4,6.3,2.4c2.6,0,4.6-0.5,5.6-0.7v-6.7C148.7,33.2,147.5,33.7,146.2,33.7z"/>
	<path d="M171.3,14.2l-5.8,16.6l-5.9-16.6h-8.8l9.5,23.3c1.8,4.2-0.4,5.8-2,5.8c-1.2,0-2.5,0-3.8-0.7v6.7c1.3,0.3,3.1,0.7,5.5,0.7
		c4.4,0,6.5-2.8,8.4-7.5L180,14.2H171.3z"/>
	<path d="M122.9,0.1c-2.9,0-5.3,2.4-5.3,5.3c0,2.9,2.4,5.3,5.3,5.3c2.9,0,5.3-2.4,5.3-5.3C128.2,2.4,125.8,0.1,122.9,0.1z
		 M122.9,8.1c-1.5,0-2.7-1.2-2.7-2.7c0-1.5,1.2-2.7,2.7-2.7c1.5,0,2.7,1.2,2.7,2.7C125.6,6.9,124.4,8.1,122.9,8.1z"/>
	<path d="M5.3,0.1C2.4,0.1,0,2.4,0,5.4c0,2.9,2.4,5.3,5.3,5.3c2.9,0,5.3-2.4,5.3-5.3C10.6,2.4,8.3,0.1,5.3,0.1z M5.3,8.1
		c-1.5,0-2.7-1.2-2.7-2.7c0-1.5,1.2-2.7,2.7-2.7C6.8,2.7,8,3.9,8,5.4C8,6.9,6.8,8.1,5.3,8.1z"/>
</g>
</svg>
